# xmcd CD database file
#
# Track frame offsets:
#	150
#	23363
#	39835
#	62970
#	72762
#	86369
#	99959
#	111654
#	124547
#	147636
#	164716
#	180933
#	192384
#	205003
#	221717
#	235926
#	253980
#
# Disc length: 3635 seconds
#
# Revision: 0
# Processed by: cddbd v1.5.1PL2 Copyright (c) Steve Scherf et al.
# Submitted via: CDex 1.51
#
DISCID=f20e3111
DTITLE=Charlie Parker - The Memorial Album
DYEAR=1999
DGENRE=Jazz
TTITLE0=Confirmation
TTITLE1=Get Happy
TTITLE2=Groovin'High
TTITLE3=The Gypsy
TTITLE4=Parker's Mood
TTITLE5=Bird Feathers
TTITLE6=Carvin' the Bird
TTITLE7=Scrapple from the Apple
TTITLE8=A Night in Tunisia
TTITLE9=Dizzy Atmosphere
TTITLE10=Ko-Ko
TTITLE11=Be-Bop
TTITLE12=Yardbird Suite
TTITLE13=Hallelujah
TTITLE14=Bird of Paradise
TTITLE15=Out of Nowhere
TTITLE16=Big Foot
EXTD=YEAR: 1999
EXTT0=
EXTT1=
EXTT2=
EXTT3=
EXTT4=
EXTT5=
EXTT6=
EXTT7=
EXTT8=
EXTT9=
EXTT10=
EXTT11=
EXTT12=
EXTT13=
EXTT14=
EXTT15=
EXTT16=
PLAYORDER=
